<?xml version="1.0" standalone="no"?><svg xmlns="http://www.w3.org/2000/svg" viewBox="0 0 1440 320"><path fill="#0099ff" fill-opacity="1" d="M0,96L20,112C40,128,80,160,120,154.7C160,149,200,107,240,122.7C280,139,320,213,360,240C400,267,440,245,480,240C520,235,560,245,600,213.3C640,181,680,107,720,85.3C760,64,800,96,840,96C880,96,920,64,960,85.3C1000,107,1040,181,1080,176C1120,171,1160,85,1200,74.7C1240,64,1280,128,1320,160C1360,192,1400,192,1420,192L1440,192L1440,320L1420,320C1400,320,1360,320,1320,320C1280,320,1240,320,1200,320C1160,320,1120,320,1080,320C1040,320,1000,320,960,320C920,320,880,320,840,320C800,320,760,320,720,320C680,320,640,320,600,320C560,320,520,320,480,320C440,320,400,320,360,320C320,320,280,320,240,320C200,320,160,320,120,320C80,320,40,320,20,320L0,320Z"></path></svg>