<svg height="512pt" viewBox="0 -16 512.00065 512" width="512pt" xmlns="http://www.w3.org/2000/svg" xmlns:xlink="http://www.w3.org/1999/xlink"><linearGradient id="a"><stop offset="0" stop-color="#e93e3a"/><stop offset=".354" stop-color="#ed683c"/><stop offset=".705" stop-color="#f3903f"/><stop offset="1" stop-color="#fdc70c"/></linearGradient><linearGradient id="b" gradientTransform="matrix(.671705 0 0 -.671705 -.0002 479.973757)" gradientUnits="userSpaceOnUse" x1="-3.9949" x2="889.9122" xlink:href="#a" y1="452.2849" y2="452.2849"/><linearGradient id="c" gradientTransform="matrix(.671705 0 0 -.671705 -.0002 479.973757)" gradientUnits="userSpaceOnUse" x1="-3.9949" x2="889.9122" xlink:href="#a" y1="201.9341" y2="201.9341"/><path d="m413.492188 128.910156c-17.292969-86.765625-101.648438-143.082031-188.414063-125.789062-63.460937 12.648437-113.082031 62.238281-125.769531 125.691406-61.519532 7.089844-105.648438 62.707031-98.5625 124.230469 6.523437 56.621093 54.480468 99.339843 111.476562 99.300781h80.09375c8.847656 0 16.019532-7.171875 16.019532-16.019531 0-8.847657-7.171876-16.019531-16.019532-16.019531h-80.09375c-44.238281-.261719-79.886718-36.332032-79.625-80.566407.261719-44.234375 36.332032-79.882812 80.570313-79.625 8.164062.003907 15.023437-6.140625 15.921875-14.253906 8.132812-70.308594 71.722656-120.710937 142.03125-112.578125 59.109375 6.835938 105.738281 53.464844 112.574218 112.574219 1.34375 8.261719 8.5 14.3125 16.867188 14.257812 44.238281 0 80.097656 35.859375 80.097656 80.097657 0 44.234374-35.859375 80.09375-80.097656 80.09375h-80.09375c-8.847656 0-16.019531 7.171874-16.019531 16.019531 0 8.847656 7.171875 16.019531 16.019531 16.019531h80.097656c61.925782-.386719 111.816406-50.902344 111.433594-112.828125-.351562-56.394531-42.53125-103.753906-98.507812-110.605469zm0 0" fill="url(#b)"/><path d="m313.019531 385.183594-40.609375 40.621094v-201.613282c0-8.847656-7.171875-16.019531-16.019531-16.019531-8.84375 0-16.015625 7.171875-16.015625 16.019531v201.617188l-40.609375-40.625c-6.148437-6.367188-16.289063-6.542969-22.652344-.394532-6.363281 6.144532-6.539062 16.285157-.394531 22.648438.128906.132812.261719.265625.394531.394531l67.9375 67.953125c1.480469 1.480469 3.238281 2.65625 5.175781 3.460938 3.941407 1.664062 8.390626 1.664062 12.332032 0 1.9375-.804688 3.695312-1.980469 5.175781-3.460938l67.9375-67.953125c6.363281-6.144531 6.539063-16.285156.394531-22.648437-6.148437-6.367188-16.289062-6.542969-22.652344-.394532-.132812.128907-.265624.257813-.394531.394532zm0 0" fill="url(#c)"/></svg>